<svg width="40" height="65" viewBox="0 0 40 65" fill="none" xmlns="http://www.w3.org/2000/svg">
<path d="M17.3538 0C10.3786 0 5.69326 4.78591 5.69326 10.8827C5.69326 16.8434 10.3786 21.6386 17.3538 21.6386C24.2081 21.6386 28.8935 16.8434 28.8935 10.8827C28.8935 4.78591 24.2081 0 17.3538 0ZM0.83572 34.8895L16.952 48.802L34.1226 25.3053H6.27327C5.17488 25.3001 4.09457 25.5914 3.14137 26.15C2.18818 26.7086 1.39582 27.5147 0.844275 28.4868C0.292729 29.459 0.00150755 30.5628 5.83736e-06 31.687C-0.00149587 32.8111 0.286773 33.9158 0.83572 34.8895V34.8895ZM38.968 25.3053L17.5954 54.5401L6.54817 45.0023L17.2873 64.0377L39.1342 25.3053H38.968Z" fill="url(#paint0_linear)"/>
<defs>
<linearGradient id="paint0_linear" x1="1.72863e-06" y1="76.365" x2="50.91" y2="3.75475e-06" gradientUnits="userSpaceOnUse">
<stop stop-color="#00508C"/>
<stop offset="0.09" stop-color="#0C508A"/>
<stop offset="0.25" stop-color="#2B5185"/>
<stop offset="0.46" stop-color="#5E517D"/>
<stop offset="0.72" stop-color="#A45272"/>
<stop offset="1" stop-color="#F85365"/>
</linearGradient>
</defs>
</svg>
